<svg width="18" height="25" viewBox="0 0 18 25" fill="none" xmlns="http://www.w3.org/2000/svg">
<path d="M9.00065 6.0835C9.7742 6.0835 10.5161 6.39079 11.063 6.93777C11.61 7.48475 11.9173 8.22661 11.9173 9.00016C11.9173 9.38318 11.8419 9.76246 11.6953 10.1163C11.5487 10.4702 11.3339 10.7917 11.063 11.0626C10.7922 11.3334 10.4707 11.5482 10.1168 11.6948C9.76295 11.8414 9.38367 11.9168 9.00065 11.9168C8.2271 11.9168 7.48524 11.6095 6.93826 11.0626C6.39127 10.5156 6.08398 9.77371 6.08398 9.00016C6.08398 8.22661 6.39127 7.48475 6.93826 6.93777C7.48524 6.39079 8.2271 6.0835 9.00065 6.0835ZM9.00065 0.833496C11.1666 0.833496 13.2438 1.69391 14.7754 3.22546C16.3069 4.757 17.1673 6.83423 17.1673 9.00016C17.1673 15.1252 9.00065 24.1668 9.00065 24.1668C9.00065 24.1668 0.833984 15.1252 0.833984 9.00016C0.833984 6.83423 1.6944 4.757 3.22595 3.22546C4.75749 1.69391 6.83472 0.833496 9.00065 0.833496ZM9.00065 3.16683C7.45355 3.16683 5.96982 3.78141 4.87586 4.87537C3.7819 5.96934 3.16732 7.45307 3.16732 9.00016C3.16732 10.1668 3.16732 12.5002 9.00065 20.3285C14.834 12.5002 14.834 10.1668 14.834 9.00016C14.834 7.45307 14.2194 5.96934 13.1254 4.87537C12.0315 3.78141 10.5477 3.16683 9.00065 3.16683Z" fill="#D1AC96"/>
</svg>
