<svg width="32" height="32" viewBox="0 0 32 32" fill="none" xmlns="http://www.w3.org/2000/svg">
<path d="M16.0002 5.33325H26.6668C26.6668 8.16223 25.543 10.8753 23.5426 12.8757C21.5422 14.8761 18.8291 15.9999 16.0002 15.9999M16.0002 5.33325C13.1712 5.33325 10.4581 6.45706 8.45769 8.45745C6.4573 10.4578 5.3335 13.1709 5.3335 15.9999M16.0002 5.33325V26.6666M5.3335 15.9999C5.3335 18.8289 6.4573 21.542 8.45769 23.5424C10.4581 25.5428 13.1712 26.6666 16.0002 26.6666M5.3335 15.9999H16.0002M16.0002 26.6666H26.6668C26.6668 23.8376 25.543 21.1245 23.5426 19.1241C21.5422 17.1237 18.8291 15.9999 16.0002 15.9999" stroke="#F6F6F6" stroke-width="3" stroke-linecap="round" stroke-linejoin="round"/>
</svg>
