<svg width="32" height="32" viewBox="0 0 32 32" fill="none" xmlns="http://www.w3.org/2000/svg">
<path d="M26 30H24V25C23.9984 23.6744 23.4711 22.4036 22.5338 21.4662C21.5964 20.5289 20.3256 20.0016 19 20H13C11.6744 20.0016 10.4036 20.5289 9.46622 21.4662C8.52888 22.4036 8.00159 23.6744 8 25V30H6V25C6.00212 23.1441 6.7403 21.3649 8.05259 20.0526C9.36489 18.7403 11.1441 18.0021 13 18H19C20.8559 18.0021 22.6351 18.7403 23.9474 20.0526C25.2597 21.3649 25.9979 23.1441 26 25V30ZM22 6V10C22 11.103 21.103 12 20 12H19C18.7348 12 18.4804 12.1054 18.2929 12.2929C18.1054 12.4804 18 12.7348 18 13C18 13.2652 18.1054 13.5196 18.2929 13.7071C18.4804 13.8946 18.7348 14 19 14H20C22.206 14 24 12.206 24 10V6H22ZM16 16C12.14 16 9 12.86 9 9C9 5.14 12.14 2 16 2C17.988 2 19.89 2.85 21.217 4.333L19.727 5.667C19.2577 5.14296 18.6833 4.72367 18.0411 4.43645C17.3989 4.14923 16.7035 4.00051 16 4C13.243 4 11 6.243 11 9C11 11.757 13.243 14 16 14V16Z" fill="#F6F6F6"/>
</svg>
