<svg width="32" height="30" viewBox="0 0 32 30" fill="none" xmlns="http://www.w3.org/2000/svg">
<path d="M22.8574 1.42847H9.14314C7.88077 1.42847 6.85742 2.45182 6.85742 3.71418V15.1428C6.85742 16.4051 7.88077 17.4285 9.14314 17.4285H22.8574C24.1198 17.4285 25.1431 16.4051 25.1431 15.1428V3.71418C25.1431 2.45182 24.1198 1.42847 22.8574 1.42847Z" stroke="#F6F6F6" stroke-width="2.57143" stroke-linecap="round" stroke-linejoin="round"/>
<path d="M6.85735 8.28564H3.42878C2.82257 8.28564 2.24119 8.52646 1.81254 8.95512C1.38388 9.38377 1.14307 9.96515 1.14307 10.5714V20.8571C1.14307 21.4633 1.38388 22.0447 1.81254 22.4733C2.24119 22.902 2.82257 23.1428 3.42878 23.1428H28.5716C29.1778 23.1428 29.7592 22.902 30.1879 22.4733C30.6165 22.0447 30.8574 21.4633 30.8574 20.8571V10.5714C30.8574 9.96515 30.6165 9.38377 30.1879 8.95512C29.7592 8.52646 29.1778 8.28564 28.5716 8.28564H25.1431M9.14307 23.1428L8.00021 28.8571M22.8574 23.1428L24.0002 28.8571" stroke="#F6F6F6" stroke-width="2.57143" stroke-linecap="round" stroke-linejoin="round"/>
</svg>
