<svg width="24" height="19" viewBox="0 0 24 19" fill="none" xmlns="http://www.w3.org/2000/svg">
<path d="M0.333984 2.50008C0.333984 1.88124 0.579817 1.28775 1.0174 0.850165C1.45499 0.412581 2.04848 0.166748 2.66732 0.166748H21.334C21.9528 0.166748 22.5463 0.412581 22.9839 0.850165C23.4215 1.28775 23.6673 1.88124 23.6673 2.50008V16.5001C23.6673 17.1189 23.4215 17.7124 22.9839 18.15C22.5463 18.5876 21.9528 18.8334 21.334 18.8334H2.66732C2.04848 18.8334 1.45499 18.5876 1.0174 18.15C0.579817 17.7124 0.333984 17.1189 0.333984 16.5001V2.50008ZM4.43948 2.50008L12.0007 9.11625L19.5618 2.50008H4.43948ZM21.334 4.05058L12.7695 11.5452C12.5567 11.7317 12.2835 11.8344 12.0007 11.8344C11.7178 11.8344 11.4446 11.7317 11.2318 11.5452L2.66732 4.05058V16.5001H21.334V4.05058Z" fill="#D1AC96"/>
</svg>
