<svg width="25" height="24" viewBox="0 0 25 24" fill="none" xmlns="http://www.w3.org/2000/svg">
<g clip-path="url(#clip0_3956_203)">
<path d="M16.3336 12V11.999C16.3336 11.0737 16.0127 10.1769 15.4256 9.46158C14.8385 8.74625 14.0216 8.2566 13.114 8.07606C12.2064 7.89551 11.2643 8.03525 10.4481 8.47144C9.63199 8.90764 8.99234 9.61332 8.63816 10.4682C8.28398 11.3232 8.23718 12.2745 8.50573 13.16C8.77429 14.0456 9.34158 14.8106 10.111 15.3248C10.8803 15.839 11.8042 16.0706 12.7252 15.98C13.6461 15.8894 14.5071 15.4823 15.1616 14.828C15.5329 14.4691 15.8281 14.039 16.0294 13.5634C16.2308 13.0878 16.3343 12.5765 16.3336 12.06L16.3326 11.997L16.3336 12ZM18.4936 12C18.4888 13.4185 17.9926 14.7915 17.0895 15.8853C16.1864 16.9791 14.9322 17.7262 13.5403 17.9994C12.1484 18.2726 10.7048 18.0551 9.45523 17.3838C8.20566 16.7125 7.22732 15.6289 6.6867 14.3175C6.14607 13.0061 6.07657 11.5479 6.49003 10.191C6.90348 8.83418 7.77434 7.6625 8.9544 6.87541C10.1345 6.08833 11.5508 5.73447 12.9624 5.87406C14.374 6.01365 15.6936 6.63807 16.6966 7.64105C17.2662 8.19376 17.7189 8.85534 18.0278 9.58647C18.3366 10.3176 18.4954 11.1034 18.4946 11.897L18.4936 12.006V12.001V12ZM20.1806 5.59405V5.59605C20.1807 5.9292 20.0653 6.25209 19.854 6.50969C19.6427 6.76729 19.3487 6.94367 19.0219 7.00876C18.6952 7.07385 18.356 7.02364 18.0621 6.86668C17.7683 6.70971 17.5379 6.45571 17.4104 6.14795C17.2828 5.84019 17.2659 5.49771 17.3625 5.17887C17.4591 4.86003 17.6633 4.58456 17.9403 4.3994C18.2172 4.21424 18.5498 4.13084 18.8814 4.16341C19.2129 4.19599 19.523 4.34252 19.7586 4.57805C20.0146 4.82905 20.1736 5.17905 20.1736 5.56605V5.59505L20.1806 5.59405ZM12.3406 2.15405L11.1456 2.14605C10.4216 2.14071 9.87192 2.14071 9.49659 2.14605C9.12126 2.15138 8.61859 2.16705 7.98859 2.19305C7.40359 2.21305 6.84859 2.27105 6.30559 2.36305L6.37859 2.35305C5.95359 2.42305 5.57659 2.52305 5.21559 2.65605L5.25859 2.64205C4.7486 2.84706 4.28482 3.15212 3.89461 3.53924C3.5044 3.92636 3.19565 4.3877 2.98659 4.89605L2.97659 4.92305C2.84823 5.27436 2.75315 5.63695 2.69259 6.00605L2.68759 6.04305C2.59865 6.5685 2.54552 7.09939 2.52859 7.63205L2.52759 7.65305C2.50159 8.28371 2.48592 8.78638 2.48059 9.16105C2.47526 9.53571 2.47526 10.0854 2.48059 10.81C2.48592 11.5347 2.48859 11.933 2.48859 12.005C2.48859 12.077 2.48592 12.4754 2.48059 13.2C2.47526 13.9247 2.47526 14.4744 2.48059 14.849C2.48592 15.2237 2.50159 15.7264 2.52759 16.357C2.54759 16.942 2.60559 17.497 2.69759 18.04L2.68759 17.967C2.75759 18.392 2.85759 18.769 2.99059 19.13L2.97659 19.087C3.1816 19.597 3.48667 20.0608 3.87379 20.451C4.2609 20.8412 4.72224 21.15 5.23059 21.359L5.25759 21.369C5.57559 21.488 5.95259 21.588 6.34059 21.653L6.37759 21.658C6.84659 21.74 7.40159 21.798 7.96559 21.817L7.98659 21.818C8.61726 21.844 9.11992 21.8597 9.49459 21.865C9.86926 21.8704 10.4189 21.8704 11.1436 21.865L12.3316 21.841L13.5266 21.849C14.2506 21.8544 14.8003 21.8544 15.1756 21.849C15.5509 21.8437 16.0536 21.828 16.6836 21.802C17.2686 21.782 17.8236 21.724 18.3666 21.632L18.2936 21.642C18.7186 21.572 19.0956 21.472 19.4566 21.339L19.4136 21.353C19.9236 21.148 20.3874 20.843 20.7776 20.4559C21.1678 20.0687 21.4765 19.6074 21.6856 19.099L21.6956 19.072C21.8146 18.754 21.9146 18.377 21.9796 17.989L21.9846 17.952C22.0666 17.483 22.1246 16.928 22.1436 16.364L22.1446 16.343C22.1706 15.7124 22.1863 15.2097 22.1916 14.835C22.1969 14.4604 22.1969 13.9107 22.1916 13.186C22.1863 12.4614 22.1836 12.063 22.1836 11.991C22.1836 11.919 22.1863 11.5207 22.1916 10.796C22.1969 10.0714 22.1969 9.52171 22.1916 9.14705C22.1863 8.77238 22.1706 8.26971 22.1446 7.63905C22.1246 7.05405 22.0666 6.49905 21.9746 5.95605L21.9846 6.02905C21.9212 5.63255 21.8197 5.24309 21.6816 4.86605L21.6956 4.90905C21.4906 4.39905 21.1855 3.93527 20.7984 3.54506C20.4113 3.15485 19.9499 2.84611 19.4416 2.63705L19.4146 2.62705C19.0633 2.49869 18.7007 2.40361 18.3316 2.34305L18.2946 2.33805C17.7695 2.24915 17.2389 2.19603 16.7066 2.17905L16.6856 2.17805C16.0549 2.15205 15.5523 2.13638 15.1776 2.13105C14.8029 2.12571 14.2533 2.12571 13.5286 2.13105L12.3406 2.15405ZM24.3336 12C24.3336 14.3854 24.3069 16.0364 24.2536 16.953C24.3009 17.882 24.1524 18.8106 23.8179 19.6785C23.4833 20.5465 22.9702 21.3344 22.3116 21.9914C21.6531 22.6483 20.8639 23.1596 19.9951 23.492C19.1264 23.8244 18.1975 23.9706 17.2686 23.921L17.2846 23.922C16.3679 23.9754 14.7169 24.002 12.3316 24.002C9.94626 24.002 8.29526 23.9754 7.37859 23.922C6.44961 23.9693 5.52106 23.8209 4.65312 23.4863C3.78517 23.1518 2.9972 22.6386 2.34026 21.9801C1.68333 21.3216 1.17208 20.5323 0.83966 19.6636C0.507239 18.7948 0.361058 17.8659 0.41059 16.937L0.40959 16.953C0.356257 16.0364 0.32959 14.3854 0.32959 12C0.32959 9.61471 0.356257 7.96371 0.40959 7.04705C0.362321 6.11806 0.510765 5.18952 0.845303 4.32157C1.17984 3.45363 1.69301 2.66566 2.35155 2.00872C3.01009 1.35178 3.79931 0.840539 4.66806 0.508117C5.53682 0.175696 6.46573 0.0295148 7.39459 0.0790469L7.37859 0.0780469C8.29526 0.0247135 9.94626 -0.00195312 12.3316 -0.00195312C14.7169 -0.00195312 16.3679 0.0247135 17.2846 0.0780469C18.2136 0.0307783 19.1421 0.179222 20.0101 0.51376C20.878 0.848297 21.666 1.36146 22.3229 2.02C22.9799 2.67854 23.4911 3.46776 23.8235 4.33652C24.1559 5.20527 24.3021 6.13418 24.2526 7.06305L24.2536 7.04705C24.3069 7.96305 24.3336 9.61405 24.3336 12Z" fill="#D5D5D5"/>
</g>
<defs>
<clipPath id="clip0_3956_203">
<rect width="24" height="24" fill="white" transform="translate(0.333496)"/>
</clipPath>
</defs>
</svg>
