<svg width="27" height="27" viewBox="0 0 27 27" fill="none" xmlns="http://www.w3.org/2000/svg">
<path d="M19.9993 3.16659H1.33268V0.833252H19.9993V3.16659ZM19.416 13.6666H17.666V19.4999L21.8777 22.0199L22.7527 20.5966L19.416 18.6249V13.6666ZM26.9993 18.3333C26.9993 22.8483 23.3477 26.4999 18.8327 26.4999C14.7143 26.4999 11.331 23.4549 10.7593 19.4999H1.33268V12.4999H0.166016V10.1666L1.33268 4.33325H19.9993L21.166 10.1666V10.5049C24.5377 11.5199 26.9993 14.6349 26.9993 18.3333ZM2.54602 10.1666H18.786L18.086 6.66658H3.24602L2.54602 10.1666ZM3.66602 17.1666H10.666V12.4999H3.66602V17.1666ZM24.666 18.3333C24.666 15.1133 22.0527 12.4999 18.8327 12.4999C15.6127 12.4999 12.9993 15.1133 12.9993 18.3333C12.9993 21.5533 15.6127 24.1666 18.8327 24.1666C22.0527 24.1666 24.666 21.5533 24.666 18.3333Z" fill="#D1AC96"/>
</svg>
