<svg width="25" height="22" viewBox="0 0 25 22" fill="none" xmlns="http://www.w3.org/2000/svg">
<path d="M23.4983 1.40005L24.2983 1.34725C24.2879 1.1902 24.2314 1.03969 24.1359 0.914586C24.0404 0.789478 23.9101 0.695325 23.7613 0.643914C23.6126 0.592504 23.452 0.58612 23.2996 0.625562C23.1472 0.665004 23.0098 0.74852 22.9047 0.865653L23.4983 1.40005ZM22.7015 6.13445C22.7015 5.92228 22.6172 5.7188 22.4672 5.56877C22.3172 5.41874 22.1137 5.33445 21.9015 5.33445C21.6893 5.33445 21.4858 5.41874 21.3358 5.56877C21.1858 5.7188 21.1015 5.92228 21.1015 6.13445H22.7015ZM1.1335 19.0001V18.2001C0.961723 18.1998 0.79444 18.2549 0.656397 18.3572C0.518355 18.4594 0.416885 18.6033 0.366999 18.7677C0.317112 18.9321 0.321459 19.1082 0.379395 19.2699C0.437332 19.4316 0.545781 19.5704 0.6887 19.6657L1.1335 19.0001ZM2.7303 1.40005L3.4807 1.12005C3.42617 0.973986 3.33014 0.847036 3.20443 0.754812C3.07871 0.662588 2.92879 0.609109 2.77309 0.60095C2.61739 0.592791 2.4627 0.630308 2.32803 0.708887C2.19337 0.787467 2.0846 0.903685 2.0151 1.04325L2.7303 1.40005ZM9.1207 15.8001L9.6871 16.3649C9.7832 16.2685 9.8531 16.1491 9.89021 16.0182C9.92732 15.8872 9.9304 15.7489 9.89917 15.6165C9.86793 15.484 9.8034 15.3617 9.7117 15.2611C9.61999 15.1605 9.50414 15.085 9.3751 15.0417L9.1207 15.8001ZM20.6791 2.95685L20.0871 3.49445L20.3751 3.81285L20.7991 3.74885L20.6791 2.95685ZM22.7015 1.45285C22.7831 2.69765 22.7063 3.45285 22.5047 4.02245C22.3095 4.57445 21.9671 5.02885 21.3479 5.62245L22.4551 6.77765C23.1559 6.10565 23.6967 5.44645 24.0135 4.55685C24.3223 3.68325 24.3863 2.67205 24.2983 1.34725L22.7015 1.45285ZM22.7015 7.29925V6.13445H21.1015V7.30085H22.7015V7.29925ZM11.5175 6.26565V7.80005H13.1175V6.26565H11.5175ZM11.5175 7.80005V8.60005H13.1175V7.80005H11.5175ZM17.1735 0.600053C16.4299 0.600473 15.6937 0.747352 15.0068 1.0323C14.32 1.31725 13.696 1.73469 13.1705 2.26079C12.645 2.78689 12.2283 3.41135 11.9441 4.0985C11.6599 4.78566 11.5139 5.52206 11.5143 6.26565H13.1143C13.1139 5.73204 13.2186 5.20357 13.4225 4.71043C13.6263 4.21729 13.9254 3.76915 14.3025 3.3916C14.6796 3.01405 15.1273 2.7145 15.6202 2.51005C16.1131 2.3056 16.6415 2.20026 17.1751 2.20005V0.600053H17.1735ZM21.0999 7.29925C21.1015 14.2049 15.5127 19.8001 8.6215 19.8001V21.4001C16.3975 21.4001 22.7015 15.0865 22.7015 7.29925H21.0999ZM1.9815 1.68005C2.8519 4.00325 6.1159 8.60005 12.3175 8.60005V7.00005C7.0119 7.00005 4.2071 3.06405 3.4791 1.12005L1.9815 1.68005ZM2.0151 1.04325C0.3399 4.39685 0.0823 7.65125 1.2999 10.4225C2.5143 13.1857 5.1271 15.3105 8.8679 16.5585L9.3751 15.0417C5.9271 13.8897 3.7463 12.0145 2.7639 9.77765C1.7847 7.54885 1.9271 4.80165 3.4471 1.75685L2.0151 1.04325ZM8.5543 15.2353C7.5911 16.2001 4.6951 18.2001 1.1335 18.2001V19.8001C5.2391 19.8001 8.5207 17.5345 9.6871 16.3649L8.5543 15.2353ZM21.2727 2.42085C20.7554 1.84718 20.1233 1.38863 19.4174 1.07496C18.7115 0.761286 17.9476 0.599486 17.1751 0.600053V2.20005C18.3287 2.20005 19.3671 2.69765 20.0871 3.49445L21.2727 2.42085ZM20.7991 3.74885C22.0736 3.54064 23.2375 2.89992 24.0951 1.93445L22.9047 0.865653C22.2947 1.55484 21.4668 2.01398 20.5591 2.16645L20.7991 3.74885ZM0.6887 19.6657C3.3143 21.4161 6.0663 21.4001 8.6215 21.4001V19.8001C6.0135 19.8001 3.7447 19.7825 1.5783 18.3345L0.6887 19.6657Z" fill="#D5D5D5"/>
</svg>
